<?xml version="1.0" encoding="UTF-8"?><svg id="Layer_1" xmlns="http://www.w3.org/2000/svg" viewBox="0 0 740.8 118.68"><defs><style>.cls-1,.cls-2,.cls-3,.cls-4,.cls-5{fill:#fff;}.cls-2{opacity:.5;}.cls-3{opacity:.9;}.cls-4{opacity:.8;}.cls-5{opacity:.7;}</style></defs><g><path class="cls-1" d="M383.84,19.41v5.19c1.59-2.19,3.38-3.78,5.37-4.78,1.98-1,4.11-1.5,6.39-1.5,7.93,0,11.89,4.37,11.89,13.12v23.51h-7.79v-22.28c0-2.87-.52-4.89-1.57-6.05-1.05-1.16-2.6-1.74-4.65-1.74-1.37,0-2.63,.24-3.79,.72-1.16,.48-2.15,1.13-2.97,1.95-.82,.82-1.47,1.77-1.95,2.84-.48,1.07-.72,2.2-.72,3.38v21.19h-7.72V19.41h7.52Z"/><path class="cls-1" d="M410.83,25.56v-6.15h5.6V9.84h7.72v9.57h8.82v6.15h-8.82v18.59c0,1.82,.38,3.14,1.13,3.96,.75,.82,1.86,1.23,3.32,1.23,.77,0,1.51-.04,2.22-.14,.71-.09,1.4-.25,2.08-.48l1.16,5.81c-2.19,.73-4.56,1.09-7.11,1.09-3.92,0-6.65-1.01-8.2-3.04-1.55-2.03-2.32-5.07-2.32-9.12V25.56h-5.6Z"/><path class="cls-1" d="M469.68,44.42c-.64,3.69-2.21,6.55-4.72,8.58-2.51,2.03-6.11,3.04-10.8,3.04-5.65,0-9.95-1.63-12.88-4.89-2.94-3.26-4.41-7.85-4.41-13.77,0-3.05,.42-5.76,1.26-8.13,.84-2.37,2.03-4.36,3.55-5.98,1.53-1.62,3.35-2.85,5.47-3.69,2.12-.84,4.45-1.26,7.01-1.26,2.73,0,5.1,.42,7.11,1.26,2,.84,3.67,2.03,4.99,3.55,1.32,1.53,2.3,3.35,2.94,5.47,.64,2.12,.96,4.48,.96,7.07v3.42h-25.49c.09,3.24,.91,5.86,2.46,7.86,1.55,2.01,3.9,3.01,7.04,3.01,2.46,0,4.31-.48,5.54-1.44,1.23-.96,2.05-2.32,2.46-4.1h7.52Zm-7.11-10.73c0-2.92-.68-5.22-2.05-6.9-1.37-1.69-3.55-2.53-6.56-2.53s-5.06,.85-6.56,2.56c-1.5,1.71-2.37,4-2.6,6.87h17.77Z"/><path class="cls-1" d="M484.04,57.68c.41,1.91,1.22,3.25,2.43,4,1.21,.75,3.18,1.13,5.91,1.13,2.1,0,3.78-.41,5.06-1.23,1.28-.82,2.2-2.07,2.77-3.76,.57-1.69,.85-4.01,.85-6.97v-2.39c-1.28,1.82-2.87,3.21-4.78,4.17-1.91,.96-4.08,1.44-6.49,1.44-4.78,0-8.48-1.57-11.07-4.72-2.6-3.14-3.9-7.5-3.9-13.06s1.41-9.77,4.24-13.05c2.82-3.28,6.61-4.92,11.35-4.92,4.47,0,8.09,1.8,10.87,5.4v-4.31h7.59v30.21c0,6.84-1.32,11.77-3.96,14.8-2.64,3.03-6.81,4.55-12.51,4.55-5.15,0-9.01-.9-11.59-2.7-2.57-1.8-4.09-4.66-4.55-8.58h7.79Zm17.09-21.8c0-3.69-.78-6.48-2.32-8.37-1.55-1.89-3.83-2.84-6.84-2.84-2.83,0-5.04,.99-6.63,2.97-1.6,1.98-2.39,4.84-2.39,8.58s.76,6.55,2.29,8.58c1.53,2.03,3.66,3.04,6.39,3.04,3.01,0,5.34-.95,7.01-2.84,1.66-1.89,2.49-4.57,2.49-8.03v-1.09Z"/><path class="cls-1" d="M523.47,19.41v5.26c1.23-1.87,2.71-3.3,4.44-4.31,1.73-1,3.58-1.5,5.54-1.5,.77,0,1.42,.02,1.95,.07,.52,.05,1.04,.11,1.54,.21l-.89,7.11c-.5-.14-1.05-.23-1.64-.27-.59-.04-1.21-.07-1.85-.07-1.46,0-2.73,.24-3.83,.72s-2.02,1.11-2.77,1.88c-.75,.78-1.32,1.65-1.71,2.63-.39,.98-.58,1.97-.58,2.97v20.85h-7.72V19.41h7.52Z"/><path class="cls-1" d="M562.5,50.3c-1.32,1.6-2.94,2.92-4.85,3.96-1.91,1.05-4.24,1.57-6.97,1.57-1.69,0-3.26-.22-4.72-.65-1.46-.43-2.72-1.08-3.79-1.95-1.07-.86-1.91-1.97-2.53-3.31-.62-1.34-.92-2.93-.92-4.75,0-2.46,.55-4.45,1.64-5.98,1.09-1.53,2.52-2.72,4.27-3.59,1.75-.86,3.72-1.47,5.91-1.81,2.19-.34,4.37-.56,6.56-.65l5.26-.27v-1.5c0-2.69-.65-4.55-1.95-5.57-1.3-1.03-3-1.54-5.09-1.54-2.42,0-4.2,.41-5.37,1.23-1.16,.82-1.93,2.01-2.29,3.55l-7.11-.75c.64-3.46,2.21-5.99,4.72-7.59,2.51-1.59,5.95-2.39,10.32-2.39,2.82,0,5.16,.37,7.01,1.09,1.85,.73,3.32,1.73,4.41,3.01,1.09,1.28,1.86,2.79,2.29,4.55,.43,1.75,.65,3.68,.65,5.78v22.21h-7.45v-4.65Zm-5.13-11.96c-2.32,.14-4.2,.39-5.64,.75-1.44,.37-2.54,.83-3.32,1.4-.78,.57-1.29,1.23-1.54,1.98-.25,.75-.38,1.56-.38,2.43,0,1.55,.49,2.76,1.47,3.62,.98,.87,2.43,1.3,4.34,1.3,3.42,0,5.95-.87,7.59-2.6,1.64-1.73,2.46-4.08,2.46-7.04v-2.05l-4.99,.21Z"/><path class="cls-1" d="M571.93,25.56v-6.15h5.6V9.84h7.72v9.57h8.82v6.15h-8.82v18.59c0,1.82,.38,3.14,1.13,3.96,.75,.82,1.86,1.23,3.32,1.23,.77,0,1.51-.04,2.22-.14,.71-.09,1.4-.25,2.08-.48l1.16,5.81c-2.19,.73-4.56,1.09-7.11,1.09-3.92,0-6.65-1.01-8.2-3.04-1.55-2.03-2.32-5.07-2.32-9.12V25.56h-5.6Z"/><path class="cls-1" d="M630.92,44.42c-.64,3.69-2.21,6.55-4.72,8.58-2.51,2.03-6.11,3.04-10.8,3.04-5.65,0-9.95-1.63-12.88-4.89-2.94-3.26-4.41-7.85-4.41-13.77,0-3.05,.42-5.76,1.26-8.13,.84-2.37,2.03-4.36,3.55-5.98,1.53-1.62,3.35-2.85,5.47-3.69,2.12-.84,4.45-1.26,7.01-1.26,2.73,0,5.1,.42,7.11,1.26,2,.84,3.67,2.03,4.99,3.55,1.32,1.53,2.3,3.35,2.94,5.47,.64,2.12,.96,4.48,.96,7.07v3.42h-25.49c.09,3.24,.91,5.86,2.46,7.86,1.55,2.01,3.9,3.01,7.04,3.01,2.46,0,4.31-.48,5.54-1.44,1.23-.96,2.05-2.32,2.46-4.1h7.52Zm-7.11-10.73c0-2.92-.68-5.22-2.05-6.9-1.37-1.69-3.55-2.53-6.56-2.53s-5.06,.85-6.56,2.56c-1.5,1.71-2.37,4-2.6,6.87h17.77Z"/><path class="cls-1" d="M662.43,50.03c-1.46,2.01-3.11,3.51-4.96,4.51-1.85,1-4,1.5-6.46,1.5s-4.76-.46-6.63-1.37c-1.87-.91-3.42-2.2-4.65-3.86-1.23-1.66-2.15-3.64-2.77-5.95-.62-2.3-.92-4.84-.92-7.62,0-2.6,.32-5.02,.96-7.28,.64-2.26,1.57-4.21,2.8-5.88,1.23-1.66,2.74-3,4.55-4,1.8-1,3.88-1.55,6.25-1.64,.45-.04,.91-.06,1.37-.03,.45,.02,.93,.06,1.44,.1,1.59,.18,3.13,.63,4.61,1.33,1.48,.71,2.9,1.88,4.27,3.52V6.15h7.72V54.95h-7.59v-4.92Zm-.07-13.6c0-2.23-.24-4.11-.72-5.64-.48-1.53-1.14-2.73-1.98-3.62-.84-.89-1.82-1.53-2.94-1.91-1.12-.39-2.29-.58-3.52-.58-2.87,0-5.09,1.03-6.66,3.08-1.57,2.05-2.36,5.17-2.36,9.36,0,2.28,.22,4.22,.65,5.81,.43,1.6,1.05,2.89,1.85,3.9,.8,1,1.72,1.73,2.77,2.19,1.05,.46,2.19,.68,3.42,.68,2.82,0,5.11-.92,6.87-2.77,1.75-1.85,2.63-4.73,2.63-8.65v-1.85Z"/><path class="cls-1" d="M377.74,67.99c3.59,0,6.81,.49,9.67,1.46,2.86,.98,5.29,2.46,7.29,4.46,2,2,3.53,4.51,4.6,7.52,1.07,3.02,1.6,6.55,1.6,10.59s-.57,7.59-1.7,10.66c-1.14,3.06-2.77,5.63-4.9,7.69-2.13,2.07-4.73,3.62-7.8,4.66-3.06,1.04-6.53,1.57-10.38,1.57h-15.93v-48.62h17.57Zm-1.36,41.6c2.86,0,5.3-.41,7.32-1.23,2.02-.82,3.68-2,4.97-3.54,1.29-1.54,2.24-3.38,2.83-5.52,.59-2.13,.89-4.54,.89-7.22,0-5.36-1.14-9.54-3.4-12.56-2.27-3.02-5.99-4.53-11.17-4.53h-9.4v34.59h7.97Z"/><path class="cls-1" d="M428.74,111.98c-1.32,1.59-2.93,2.91-4.83,3.95-1.91,1.04-4.22,1.57-6.95,1.57-1.68,0-3.25-.22-4.7-.65-1.45-.43-2.71-1.08-3.78-1.94-1.07-.86-1.91-1.96-2.52-3.3-.61-1.34-.92-2.92-.92-4.73,0-2.45,.54-4.44,1.63-5.96,1.09-1.52,2.51-2.71,4.26-3.57,1.75-.86,3.71-1.46,5.89-1.8,2.18-.34,4.36-.56,6.54-.65l5.24-.27v-1.5c0-2.68-.65-4.53-1.94-5.55-1.29-1.02-2.99-1.53-5.07-1.53-2.41,0-4.19,.41-5.35,1.23-1.16,.82-1.92,2-2.28,3.54l-7.08-.75c.64-3.45,2.2-5.97,4.7-7.56,2.5-1.59,5.92-2.38,10.28-2.38,2.81,0,5.14,.36,6.98,1.09,1.84,.73,3.3,1.73,4.39,3,1.09,1.27,1.85,2.78,2.28,4.53,.43,1.75,.65,3.67,.65,5.75v22.13h-7.42v-4.63Zm-5.11-11.92c-2.31,.14-4.19,.39-5.62,.75-1.43,.36-2.53,.83-3.3,1.4-.77,.57-1.28,1.23-1.53,1.97-.25,.75-.37,1.56-.37,2.42,0,1.54,.49,2.75,1.46,3.61,.98,.86,2.42,1.29,4.32,1.29,3.4,0,5.92-.86,7.56-2.59,1.63-1.72,2.45-4.06,2.45-7.01v-2.04l-4.97,.2Z"/><path class="cls-1" d="M437.93,87.33v-6.13h5.58v-9.53h7.69v9.53h8.78v6.13h-8.78v18.52c0,1.82,.37,3.13,1.12,3.95s1.85,1.23,3.3,1.23c.77,0,1.51-.04,2.21-.14,.7-.09,1.4-.25,2.08-.48l1.16,5.79c-2.18,.73-4.54,1.09-7.08,1.09-3.9,0-6.63-1.01-8.17-3.03-1.54-2.02-2.32-5.05-2.32-9.09v-17.84h-5.58Z"/><path class="cls-1" d="M484.84,111.98c-1.32,1.59-2.93,2.91-4.83,3.95-1.91,1.04-4.22,1.57-6.95,1.57-1.68,0-3.25-.22-4.7-.65-1.45-.43-2.71-1.08-3.78-1.94-1.07-.86-1.91-1.96-2.52-3.3-.61-1.34-.92-2.92-.92-4.73,0-2.45,.54-4.44,1.63-5.96,1.09-1.52,2.51-2.71,4.26-3.57,1.75-.86,3.71-1.46,5.89-1.8,2.18-.34,4.36-.56,6.54-.65l5.24-.27v-1.5c0-2.68-.65-4.53-1.94-5.55-1.29-1.02-2.99-1.53-5.07-1.53-2.41,0-4.19,.41-5.35,1.23-1.16,.82-1.92,2-2.28,3.54l-7.08-.75c.64-3.45,2.2-5.97,4.7-7.56,2.5-1.59,5.92-2.38,10.28-2.38,2.81,0,5.14,.36,6.98,1.09,1.84,.73,3.3,1.73,4.39,3,1.09,1.27,1.85,2.78,2.28,4.53,.43,1.75,.65,3.67,.65,5.75v22.13h-7.42v-4.63Zm-5.11-11.92c-2.31,.14-4.19,.39-5.62,.75-1.43,.36-2.53,.83-3.3,1.4-.77,.57-1.28,1.23-1.53,1.97-.25,.75-.37,1.56-.37,2.42,0,1.54,.49,2.75,1.46,3.61,.98,.86,2.42,1.29,4.32,1.29,3.4,0,5.92-.86,7.56-2.59,1.63-1.72,2.45-4.06,2.45-7.01v-2.04l-4.97,.2Z"/><path class="cls-1" d="M522.09,101.76c.36,3.18,1.51,5.49,3.44,6.95,1.93,1.45,4.8,2.18,8.61,2.18,1.86,0,3.43-.2,4.7-.61,1.27-.41,2.29-.95,3.06-1.63,.77-.68,1.32-1.49,1.63-2.42,.32-.93,.48-1.92,.48-2.96,0-.77-.11-1.53-.34-2.28-.23-.75-.64-1.44-1.23-2.08-.59-.64-1.39-1.19-2.38-1.67-1-.48-2.27-.85-3.81-1.12l-6.2-1.16c-2.45-.45-4.63-1.02-6.54-1.7-1.91-.68-3.51-1.58-4.8-2.69-1.29-1.11-2.27-2.47-2.93-4.09-.66-1.61-.99-3.57-.99-5.89s.46-4.33,1.4-6.06c.93-1.72,2.21-3.17,3.85-4.32,1.63-1.16,3.57-2.02,5.82-2.59,2.25-.57,4.69-.85,7.32-.85,3.36,0,6.17,.39,8.44,1.16,2.27,.77,4.11,1.78,5.52,3.03,1.41,1.25,2.47,2.69,3.2,4.32,.73,1.63,1.23,3.34,1.5,5.11l-7.76,1.23c-.64-2.72-1.74-4.74-3.3-6.06-1.57-1.32-4.05-1.97-7.46-1.97-1.95,0-3.57,.17-4.87,.51s-2.34,.82-3.13,1.43c-.79,.61-1.36,1.32-1.7,2.11-.34,.79-.51,1.62-.51,2.49,0,2.13,.58,3.72,1.74,4.77,1.16,1.04,3.19,1.86,6.09,2.45l6.74,1.29c5.13,.95,8.9,2.58,11.3,4.87,2.41,2.29,3.61,5.6,3.61,9.91,0,2.04-.37,3.94-1.12,5.69-.75,1.75-1.9,3.27-3.44,4.56-1.54,1.29-3.46,2.32-5.75,3.06-2.29,.75-4.96,1.12-8,1.12-6.22,0-11.1-1.3-14.64-3.92-3.54-2.61-5.49-6.66-5.86-12.15h8.31Z"/><path class="cls-1" d="M589.91,106.12c-.64,3.68-2.2,6.53-4.7,8.55-2.5,2.02-6.08,3.03-10.76,3.03-5.63,0-9.91-1.62-12.84-4.87-2.93-3.25-4.39-7.82-4.39-13.72,0-3.04,.42-5.74,1.26-8.1,.84-2.36,2.02-4.35,3.54-5.96,1.52-1.61,3.34-2.84,5.45-3.68,2.11-.84,4.44-1.26,6.98-1.26,2.72,0,5.08,.42,7.08,1.26,2,.84,3.65,2.02,4.97,3.54,1.32,1.52,2.29,3.34,2.93,5.45,.64,2.11,.95,4.46,.95,7.05v3.4h-25.4c.09,3.22,.91,5.83,2.45,7.83,1.54,2,3.88,3,7.01,3,2.45,0,4.29-.48,5.52-1.43s2.04-2.32,2.45-4.09h7.49Zm-7.08-10.69c0-2.9-.68-5.2-2.04-6.88-1.36-1.68-3.54-2.52-6.54-2.52s-5.04,.85-6.54,2.55c-1.5,1.7-2.36,3.98-2.59,6.84h17.7Z"/><path class="cls-1" d="M604.07,81.2v5.24c1.23-1.86,2.7-3.29,4.43-4.29,1.72-1,3.56-1.5,5.52-1.5,.77,0,1.42,.02,1.94,.07,.52,.05,1.03,.11,1.53,.2l-.89,7.08c-.5-.14-1.04-.23-1.63-.27-.59-.04-1.2-.07-1.84-.07-1.45,0-2.72,.24-3.81,.71-1.09,.48-2.01,1.1-2.76,1.87-.75,.77-1.32,1.65-1.7,2.62-.39,.98-.58,1.96-.58,2.96v20.77h-7.69v-35.41h7.49Z"/><path class="cls-1" d="M628.38,81.2l9.19,26.69,9.33-26.69h8.58l-14.1,35.41h-7.97l-14.03-35.41h8.99Z"/><path class="cls-1" d="M666.99,67.99v7.69h-8.03v-7.69h8.03Zm-.14,13.21v35.41h-7.76v-35.41h7.76Z"/><path class="cls-1" d="M704.23,104.22c-.45,4.22-1.96,7.52-4.53,9.91-2.57,2.38-6.23,3.57-11,3.57-2.86,0-5.35-.44-7.46-1.33-2.11-.89-3.87-2.14-5.28-3.78-1.41-1.63-2.45-3.6-3.13-5.89-.68-2.29-1.02-4.85-1.02-7.66s.39-5.39,1.16-7.73c.77-2.34,1.89-4.33,3.37-5.99,1.47-1.66,3.28-2.94,5.41-3.85,2.13-.91,4.56-1.36,7.29-1.36,2.5,0,4.61,.33,6.33,.99,1.72,.66,3.15,1.54,4.29,2.66,1.13,1.11,2.02,2.39,2.66,3.85,.64,1.45,1.09,2.97,1.36,4.56l-7.69,1.16c-.36-2-1.06-3.65-2.08-4.97-1.02-1.32-2.74-1.97-5.14-1.97-1.73,0-3.16,.36-4.29,1.09-1.14,.73-2.04,1.67-2.72,2.83-.68,1.16-1.17,2.49-1.46,3.98-.3,1.5-.44,3.02-.44,4.56,0,1.77,.16,3.43,.48,4.97,.32,1.54,.82,2.87,1.5,3.98,.68,1.11,1.59,2,2.72,2.66,1.13,.66,2.52,.99,4.15,.99,2.36,0,4.15-.62,5.38-1.87,1.23-1.25,2-3.03,2.32-5.35h7.83Z"/><path class="cls-1" d="M740.32,106.12c-.64,3.68-2.2,6.53-4.7,8.55-2.5,2.02-6.08,3.03-10.76,3.03-5.63,0-9.91-1.62-12.84-4.87-2.93-3.25-4.39-7.82-4.39-13.72,0-3.04,.42-5.74,1.26-8.1,.84-2.36,2.02-4.35,3.54-5.96,1.52-1.61,3.34-2.84,5.45-3.68,2.11-.84,4.44-1.26,6.98-1.26,2.72,0,5.08,.42,7.08,1.26,2,.84,3.65,2.02,4.97,3.54,1.32,1.52,2.29,3.34,2.93,5.45,.63,2.11,.95,4.46,.95,7.05v3.4h-25.4c.09,3.22,.91,5.83,2.45,7.83,1.54,2,3.88,3,7.01,3,2.45,0,4.29-.48,5.52-1.43s2.04-2.32,2.45-4.09h7.49Zm-7.08-10.69c0-2.9-.68-5.2-2.04-6.88-1.36-1.68-3.54-2.52-6.54-2.52s-5.04,.85-6.54,2.55-2.36,3.98-2.59,6.84h17.7Z"/><rect class="cls-1" x="360.29" y="5.83" width="8.24" height="49.12"/></g><g><path class="cls-5" d="M235.06,72.84c-5.93,5.93-35.86,35.86-41.8,41.79-2.63,2.63-5.62,4.25-9.54,4.03-5.26-.29-9.04-2.6-11.06-7.5-2.11-5.13-1.07-9.74,2.77-13.66,6.02-6.14,36.13-36.18,42.21-42.26,5.98-5.98,18.4-18.43,24.41-24.38,4.77-4.72,12.46-4.79,17.35-.22,4.73,4.43,5.01,12.69,.47,17.32-6.07,6.18-24.81,24.85-24.81,24.86Z"/><circle class="cls-2" cx="206.29" cy="84.1" r="12.38"/><circle class="cls-2" cx="228.87" cy="61.53" r="12.38"/></g><g><path class="cls-5" d="M267.13,72.8c5.93,5.93,35.86,35.86,41.8,41.79,2.63,2.63,5.62,4.25,9.54,4.03,5.26-.29,9.04-2.6,11.06-7.5,2.11-5.13,1.07-9.74-2.77-13.66-6.02-6.14-36.13-36.18-42.21-42.26-5.98-5.98-18.4-18.43-24.41-24.38-4.77-4.72-12.46-4.79-17.35-.22-4.73,4.43-5.01,12.69-.47,17.32,6.07,6.18,24.81,24.85,24.81,24.86Z"/><circle class="cls-2" cx="295.9" cy="84.07" r="12.38"/><circle class="cls-2" cx="273.32" cy="61.49" r="12.38"/></g><path class="cls-5" d="M27.46,73.6c-5.93,5.93-17.48,17.47-23.41,23.41C1.42,99.64-.2,102.64,.02,106.55c.29,5.26,2.6,9.04,7.5,11.06,5.13,2.11,9.74,1.07,13.66-2.77,6.14-6.02,17.79-17.74,23.87-23.82,5.98-5.98,18.43-18.4,24.38-24.41,4.72-4.77,4.79-12.46,.22-17.35-4.43-4.73-12.69-5.01-17.32-.47-6.18,6.07-24.85,24.81-24.86,24.81Z"/><circle class="cls-3" cx="36.49" cy="82.07" r="12.38"/><path class="cls-5" d="M94.43,73.6c5.93,5.93,17.48,17.47,23.41,23.41,2.63,2.63,4.25,5.62,4.03,9.54-.29,5.26-2.6,9.04-7.5,11.06-5.13,2.11-9.74,1.07-13.66-2.77-6.14-6.02-17.79-17.74-23.87-23.82-5.98-5.98-18.43-18.4-24.38-24.41-4.72-4.77-4.79-12.46-.22-17.35,4.43-4.73,12.69-5.01,17.32-.47,6.18,6.07,24.85,24.81,24.86,24.81Z"/><circle class="cls-3" cx="85.4" cy="82.07" r="12.38"/><g><path class="cls-1" d="M116.02,82.07c0-6.84,5.54-12.38,12.38-12.38,3.37,0,6.42,1.35,8.66,3.54-2.63-2.64-18.81-18.86-24.48-24.43-4.63-4.55-12.89-4.26-17.32,.47-4.57,4.88-4.51,12.57,.22,17.35,5.85,5.91,17.96,18,24.05,24.09-2.16-2.23-3.5-5.27-3.5-8.62Z"/><path class="cls-1" d="M160.84,97.01c-5.93-5.94-17.47-17.48-23.41-23.41,0,0-.07-.07-.18-.18,2.18,2.23,3.53,5.28,3.53,8.65,0,6.84-5.54,12.38-12.38,12.38-3.35,0-6.39-1.34-8.62-3.5l.06,.06c6.08,6.08,17.74,17.8,23.87,23.82,3.91,3.84,8.53,4.88,13.66,2.77,4.9-2.01,7.21-5.8,7.5-11.06,.22-3.92-1.4-6.91-4.03-9.54Z"/></g><g><path class="cls-1" d="M204.44,43c-4.8-4.8-4.83-12.57-.09-17.41-.87,.87-1.67,1.67-2.38,2.38-6.08,6.08-36.18,36.12-42.21,42.26-3.84,3.91-4.88,8.53-2.77,13.66,2.01,4.9,5.8,7.21,11.06,7.5,3.92,.22,6.91-1.4,9.54-4.03,3.06-3.05,12.47-12.46,21.69-21.69-4.84,4.75-12.61,4.72-17.42-.08-4.84-4.84-4.84-12.68,0-17.51,4.84-4.84,12.68-4.84,17.51,0,4.81,4.81,4.83,12.58,.08,17.42,8.63-8.63,17.07-17.07,19.93-19.93,0,0,.96-.95,2.5-2.49-4.84,4.77-12.63,4.75-17.44-.06Z"/><path class="cls-1" d="M243.73,3.38c-4.88-4.57-12.57-4.51-17.35,.22-5.25,5.19-15.37,15.33-21.84,21.8,4.84-4.74,12.61-4.71,17.41,.09s4.83,12.61,.06,17.45c5.37-5.36,17.51-17.48,22.18-22.23,4.55-4.63,4.26-12.89-.47-17.32Z"/></g><path class="cls-4" d="M137.06,73.23c-2.23-2.18-5.28-3.54-8.66-3.54-6.84,0-12.38,5.54-12.38,12.38,0,3.35,1.34,6.39,3.5,8.62l.26,.26c2.23,2.16,5.27,3.5,8.62,3.5,6.84,0,12.38-5.54,12.38-12.38,0-3.37-1.35-6.42-3.53-8.65l-.19-.19Z"/><path class="cls-4" d="M199.46,65.49c4.75-4.84,4.72-12.61-.08-17.42-4.84-4.84-12.68-4.84-17.51,0-4.84,4.84-4.84,12.68,0,17.51,4.81,4.81,12.58,4.83,17.42,.08l.17-.17Z"/><path class="cls-4" d="M222.01,42.94c4.77-4.84,4.75-12.63-.06-17.45s-12.57-4.83-17.41-.09l-.19,.19c-4.74,4.84-4.71,12.61,.09,17.41s12.6,4.83,17.44,.06l.13-.13Z"/></svg>